<?xml version="1.0" standalone="no"?>
<!DOCTYPE svg PUBLIC "-//W3C//DTD SVG 20010904//EN"
 "http://www.w3.org/TR/2001/REC-SVG-20010904/DTD/svg10.dtd">
<svg version="1.0" xmlns="http://www.w3.org/2000/svg"
 width="1235.000000pt" height="1235.000000pt" viewBox="0 0 1235.000000 1235.000000"
 preserveAspectRatio="xMidYMid meet">
<metadata>
Created by potrace 1.14, written by Peter Selinger 2001-2017
</metadata>
<g transform="translate(0.000000,1235.000000) scale(0.100000,-0.100000)"
fill="#000000" stroke="none">
<path d="M6085 12291 c-3 -2 -58 -6 -123 -8 -175 -5 -307 -11 -307 -13 0 -3
-21 -6 -102 -14 -47 -4 -63 -2 -63 7 0 8 -3 9 -8 1 -11 -17 -42 -25 -42 -11 0
9 -2 9 -8 1 -10 -17 -78 -24 -93 -10 -9 8 -10 8 -4 -3 6 -11 4 -13 -7 -8 -9 3
-19 3 -22 -1 -4 -3 -13 -7 -21 -8 -41 -6 -105 -16 -182 -29 -13 -2 -27 -6 -33
-10 -5 -3 -10 0 -10 7 0 10 -2 10 -9 0 -4 -8 -11 -13 -15 -13 -3 1 -7 1 -8 0
-3 -1 -48 -7 -75 -11 -7 -1 -13 -4 -13 -8 0 -4 -15 -6 -32 -5 -18 1 -40 -4
-48 -11 -9 -7 -24 -11 -35 -10 -11 2 -27 0 -35 -4 -8 -5 -31 -11 -50 -14 -49
-9 -53 -11 -67 -19 -7 -5 -13 -6 -13 -3 0 3 -15 -1 -32 -8 -18 -7 -38 -11 -45
-9 -6 2 -14 -1 -18 -7 -5 -8 -10 -8 -20 0 -10 8 -15 8 -21 -1 -4 -8 -3 -9 4
-5 7 4 12 2 12 -3 0 -6 -10 -11 -22 -11 -39 0 -58 -3 -58 -10 0 -4 -15 -6 -34
-5 -22 1 -32 -3 -29 -10 3 -8 -8 -12 -30 -10 -25 1 -34 -2 -30 -11 3 -9 -2
-12 -16 -9 -12 2 -21 -1 -21 -7 0 -6 -3 -8 -7 -5 -3 4 -12 2 -20 -4 -7 -6 -22
-9 -33 -6 -11 3 -23 0 -27 -5 -4 -7 -1 -8 7 -3 9 5 11 4 6 -4 -4 -6 -18 -9
-31 -7 -14 3 -26 -1 -29 -10 -4 -9 -15 -13 -31 -10 -14 3 -23 1 -20 -5 5 -8
-8 -11 -31 -8 -4 0 -10 -4 -14 -11 -4 -6 -17 -12 -28 -13 -12 -1 -22 -5 -22
-9 0 -4 -3 -7 -7 -6 -8 1 -24 -4 -88 -32 -89 -39 -114 -48 -119 -42 -3 3 -6 0
-6 -7 0 -7 -4 -9 -10 -6 -5 3 -10 1 -10 -4 0 -6 -9 -11 -19 -11 -11 0 -23 -5
-26 -11 -4 -6 -14 -8 -22 -5 -9 4 -11 2 -7 -6 5 -8 2 -9 -10 -5 -9 4 -15 3
-12 -2 5 -8 -44 -33 -69 -35 -5 -1 -19 -9 -29 -18 -11 -10 -26 -18 -34 -18 -8
0 -27 -9 -43 -21 -16 -11 -33 -17 -39 -14 -5 3 -10 1 -10 -4 0 -6 -7 -11 -15
-11 -8 0 -15 -5 -15 -10 0 -6 -3 -9 -7 -9 -25 4 -43 -2 -37 -12 4 -7 1 -10 -7
-7 -7 2 -22 -4 -33 -14 -11 -10 -28 -18 -38 -18 -10 0 -21 -7 -24 -15 -5 -13
-9 -13 -22 -3 -11 9 -14 9 -9 1 5 -7 -1 -16 -13 -23 -11 -6 -20 -7 -20 -3 0 4
-5 0 -11 -9 -5 -10 -17 -18 -26 -18 -9 0 -22 -8 -30 -17 -8 -10 -12 -12 -8 -6
4 9 1 11 -9 7 -9 -3 -14 -10 -11 -14 4 -7 -35 -26 -43 -21 -1 1 -12 -8 -24
-19 -21 -19 -33 -24 -51 -21 -5 1 -6 -3 -3 -8 7 -10 -22 -24 -34 -16 -5 3 -12
0 -16 -6 -4 -8 -3 -9 4 -5 7 4 12 2 12 -3 0 -6 -6 -11 -14 -11 -7 0 -19 -7
-26 -15 -7 -9 -15 -13 -18 -11 -3 3 -18 -6 -35 -20 -17 -15 -36 -23 -46 -19
-8 3 -12 3 -8 -1 10 -10 -35 -46 -50 -39 -8 2 -12 1 -9 -3 3 -5 -5 -17 -17
-27 -12 -11 -22 -17 -22 -15 0 2 -9 -4 -20 -13 -11 -9 -24 -18 -30 -18 -5 -1
-16 -10 -23 -20 -7 -11 -22 -19 -33 -19 -10 0 -18 -5 -16 -12 1 -7 -3 -12 -10
-13 -7 0 -19 -9 -28 -20 -9 -11 -14 -13 -10 -5 4 8 -1 6 -9 -4 -9 -11 -16 -17
-16 -13 0 3 -13 -6 -29 -21 -67 -62 -84 -76 -77 -62 4 8 -1 5 -12 -7 -11 -13
-25 -23 -31 -23 -6 0 -11 -5 -11 -10 0 -6 -8 -13 -17 -17 -10 -3 -33 -22 -52
-42 -18 -20 -30 -29 -26 -21 4 8 -4 3 -17 -12 -14 -16 -31 -28 -37 -28 -7 0
-10 -4 -7 -9 6 -10 -23 -26 -39 -22 -5 2 -7 -1 -3 -5 9 -9 -71 -84 -90 -84 -7
0 -11 -3 -9 -7 6 -10 -19 -34 -27 -26 -3 4 -6 0 -6 -9 0 -8 -10 -23 -22 -34
l-23 -19 20 25 c11 14 -33 -29 -98 -95 -65 -66 -123 -119 -128 -117 -6 1 -8
-2 -4 -8 3 -5 1 -10 -5 -10 -6 0 -9 -3 -7 -7 6 -10 -39 -53 -47 -46 -3 4 -6 0
-6 -8 0 -17 -36 -50 -44 -42 -3 4 -6 -1 -6 -10 0 -9 -5 -17 -11 -17 -5 0 -7
-4 -4 -10 6 -9 -7 -14 -27 -11 -4 0 -5 -6 -2 -14 4 -8 1 -15 -5 -15 -6 0 -19
-13 -30 -30 -10 -16 -21 -27 -24 -23 -4 3 -7 -1 -7 -11 0 -9 -4 -14 -10 -11
-9 6 -14 -7 -11 -27 0 -4 -13 -17 -29 -30 -17 -12 -30 -28 -30 -35 0 -7 -7
-13 -17 -13 -9 0 -14 -3 -10 -6 6 -7 -3 -20 -48 -66 -16 -17 -23 -27 -15 -23
13 8 13 6 1 -8 -7 -9 -18 -14 -24 -10 -6 3 -7 1 -3 -5 3 -6 -10 -28 -31 -49
-21 -20 -31 -34 -23 -29 8 4 6 0 -4 -8 -11 -9 -16 -16 -11 -16 4 0 -4 -11 -19
-25 -15 -14 -23 -25 -19 -25 4 0 0 -5 -10 -11 -9 -6 -15 -14 -12 -20 4 -5 -1
-12 -9 -15 -9 -3 -16 -12 -16 -20 0 -8 -4 -14 -10 -14 -5 0 -10 -7 -10 -15 0
-9 -10 -20 -22 -25 -13 -5 -17 -9 -10 -9 14 -1 10 -7 -31 -52 -9 -10 -14 -19
-10 -19 5 0 0 -5 -10 -11 -9 -6 -15 -14 -12 -19 3 -4 -2 -11 -11 -14 -8 -3
-13 -10 -10 -15 3 -5 -1 -12 -10 -15 -8 -3 -13 -10 -9 -15 3 -6 -3 -14 -12
-20 -10 -5 -17 -13 -17 -18 3 -17 -8 -33 -19 -26 -5 3 -7 1 -3 -5 3 -6 2 -13
-4 -17 -6 -4 -8 -11 -5 -16 4 -5 1 -9 -4 -9 -6 0 -11 -7 -11 -15 0 -9 -7 -18
-15 -21 -8 -4 -13 -10 -10 -14 3 -4 -2 -13 -10 -20 -8 -7 -15 -17 -15 -23 0
-5 -8 -16 -17 -24 -10 -8 -12 -11 -5 -8 11 6 11 3 0 -14 -7 -12 -16 -21 -21
-21 -4 0 -5 -5 -1 -12 5 -8 2 -9 -11 -4 -14 5 -16 4 -6 -7 9 -11 8 -17 -2 -25
-7 -6 -19 -27 -27 -46 -7 -19 -18 -32 -23 -29 -6 3 -7 1 -4 -4 4 -6 -2 -22
-14 -36 -11 -15 -19 -28 -18 -29 6 -9 -14 -47 -22 -43 -5 3 -6 -1 -3 -9 4 -9
0 -18 -9 -22 -9 -3 -13 -12 -10 -20 3 -7 -2 -16 -10 -20 -9 -3 -13 -12 -10
-20 3 -8 0 -14 -6 -14 -6 0 -11 -3 -10 -7 2 -16 -14 -53 -23 -53 -5 0 -6 -4
-3 -10 3 -5 1 -10 -5 -10 -6 0 -9 -4 -5 -9 3 -5 -1 -16 -9 -24 -8 -8 -12 -17
-9 -21 4 -3 0 -6 -7 -6 -7 0 -11 -3 -7 -6 3 -3 -3 -22 -13 -42 -20 -40 -59
-128 -61 -140 0 -4 -6 -16 -12 -27 -6 -11 -12 -22 -13 -25 -1 -3 -5 -15 -9
-27 -4 -13 -11 -23 -16 -23 -5 0 -6 -7 -3 -15 4 -8 1 -15 -6 -15 -6 0 -9 -4
-6 -9 8 -12 -19 -73 -28 -64 -4 4 -4 0 0 -10 3 -10 1 -17 -6 -17 -6 0 -8 -5
-5 -10 4 -6 1 -17 -5 -25 -7 -8 -9 -15 -6 -15 4 0 1 -10 -6 -22 -6 -13 -13
-30 -15 -39 -1 -9 -8 -29 -14 -45 -7 -16 -12 -32 -11 -36 1 -5 -2 -8 -7 -8 -5
0 -8 -6 -8 -12 1 -25 -16 -78 -25 -78 -5 0 -7 -4 -4 -9 4 -5 1 -22 -5 -38 -6
-15 -12 -35 -14 -44 -9 -44 -29 -99 -36 -99 -5 0 -6 -6 -3 -13 3 -8 -1 -27 -7
-43 -7 -16 -13 -36 -14 -44 -1 -8 -10 -44 -20 -80 -9 -36 -19 -74 -21 -85 -2
-11 -11 -47 -19 -80 -9 -33 -17 -71 -20 -85 -2 -14 -7 -36 -10 -50 -4 -14 -7
-32 -7 -40 0 -8 -2 -22 -5 -30 -7 -19 -10 -32 -18 -100 -4 -30 -9 -58 -11 -62
-3 -4 -7 -31 -10 -60 -2 -29 -7 -64 -11 -78 -3 -14 -7 -41 -9 -60 -1 -19 -5
-55 -8 -80 -9 -89 -17 -196 -17 -229 0 -18 -2 -38 -5 -43 -12 -18 -17 -485 -8
-718 3 -99 6 -141 19 -285 3 -33 7 -81 8 -107 1 -27 4 -48 7 -48 3 0 6 -17 7
-38 0 -20 4 -49 7 -64 3 -14 8 -46 10 -70 3 -24 8 -56 11 -73 8 -36 11 -55 29
-170 2 -11 4 -20 5 -20 4 0 13 -58 12 -77 0 -10 3 -18 7 -18 4 0 8 -16 9 -36
1 -20 8 -43 15 -52 11 -13 11 -14 0 -8 -11 7 -12 4 -3 -12 6 -12 12 -32 13
-46 1 -15 7 -26 12 -26 5 0 7 -3 4 -6 -4 -3 -2 -20 4 -37 5 -18 10 -40 10 -49
-1 -10 4 -18 9 -18 6 0 7 -5 4 -10 -4 -6 -1 -18 7 -27 11 -14 11 -16 -2 -8
-12 6 -13 5 -2 -6 6 -7 12 -23 12 -36 0 -13 4 -23 8 -23 8 0 12 -14 13 -52 0
-10 4 -20 10 -23 5 -4 9 -16 9 -29 0 -12 3 -26 7 -30 4 -4 8 -13 8 -19 2 -28
30 -107 38 -107 4 0 5 -5 2 -10 -4 -6 1 -22 10 -37 12 -17 13 -23 4 -18 -8 5
-6 0 3 -11 14 -16 15 -23 5 -34 -9 -10 -9 -11 1 -6 8 5 14 -3 18 -24 4 -17 11
-33 15 -36 5 -3 7 -10 4 -15 -4 -5 -1 -9 5 -9 6 0 9 -4 5 -9 -3 -5 -1 -12 5
-16 6 -4 8 -10 5 -15 -8 -12 6 -41 16 -34 5 3 9 2 8 -3 -4 -23 2 -53 14 -65 8
-7 12 -19 9 -26 -2 -6 0 -12 5 -12 5 0 15 -20 22 -45 7 -25 17 -45 23 -45 5 0
7 -4 4 -8 -3 -5 2 -21 10 -36 7 -16 14 -35 14 -42 0 -8 4 -14 10 -14 5 0 14
-10 21 -21 8 -16 8 -20 0 -14 -6 3 -2 -10 9 -30 11 -19 20 -42 20 -50 0 -8 4
-15 9 -15 5 0 12 -12 16 -27 3 -15 14 -33 23 -41 9 -7 11 -11 5 -7 -20 10 -15
-2 10 -26 12 -12 15 -18 7 -14 -13 8 -13 7 0 -9 8 -10 15 -25 17 -34 1 -9 7
-18 13 -20 5 -2 8 -8 4 -13 -3 -5 0 -9 7 -9 7 0 10 -3 6 -6 -3 -3 5 -24 19
-45 13 -21 24 -43 24 -49 0 -6 5 -8 10 -5 7 4 9 -3 6 -19 -3 -15 -2 -25 2 -22
9 5 32 -20 25 -28 -4 -3 -1 -6 6 -6 7 0 10 -4 6 -9 -3 -5 2 -16 10 -25 9 -8
22 -31 31 -51 8 -20 21 -38 29 -41 8 -4 13 -9 10 -13 -2 -4 7 -24 20 -44 14
-20 25 -40 25 -44 0 -5 11 -20 25 -35 16 -18 20 -28 12 -31 -7 -3 -5 -6 5 -6
9 -1 20 -10 23 -21 3 -11 11 -20 16 -20 5 0 8 -3 7 -7 -2 -11 35 -73 45 -73 4
0 7 -7 7 -15 0 -8 5 -15 10 -15 6 0 10 -7 10 -15 0 -8 5 -15 10 -15 6 0 10 -7
10 -16 0 -8 4 -12 10 -9 5 3 10 0 10 -8 0 -8 9 -26 21 -41 11 -14 18 -30 14
-35 -3 -6 3 -8 15 -6 11 2 19 1 19 -3 -2 -17 14 -51 22 -46 5 3 9 -1 9 -9 0
-8 9 -22 20 -32 11 -10 17 -22 14 -26 -3 -5 2 -9 10 -9 9 0 16 -6 16 -14 0 -8
11 -23 25 -34 13 -11 22 -22 19 -25 -3 -3 3 -12 15 -19 12 -7 21 -17 21 -23 0
-6 8 -18 18 -26 25 -23 62 -68 62 -77 0 -4 9 -13 20 -20 11 -7 20 -19 20 -27
0 -8 5 -15 11 -15 5 0 7 6 3 13 -4 7 -3 9 2 4 5 -5 9 -12 9 -15 1 -17 135
-158 147 -154 5 1 7 -2 3 -8 -3 -5 1 -13 10 -16 9 -4 14 -13 11 -21 -3 -8 -1
-11 4 -8 5 3 33 -19 61 -49 29 -31 56 -53 60 -50 5 3 6 -3 2 -13 -3 -10 -3
-15 2 -11 4 4 16 -4 27 -17 11 -14 24 -22 30 -19 7 4 8 2 4 -4 -4 -7 -2 -12 3
-12 6 0 11 -7 11 -17 0 -9 3 -14 6 -10 3 3 27 -14 52 -38 25 -24 50 -41 54
-39 5 3 7 0 6 -8 -2 -7 3 -12 10 -10 8 1 11 -1 8 -6 -3 -5 13 -24 34 -41 23
-18 37 -37 34 -43 -4 -6 -3 -8 3 -5 12 7 59 -31 55 -44 -1 -5 1 -8 5 -7 16 3
43 -15 36 -25 -3 -5 -2 -7 3 -4 5 3 24 -7 40 -21 17 -15 46 -38 65 -52 18 -14
44 -35 56 -47 13 -12 23 -19 23 -15 1 4 9 -3 19 -15 11 -13 28 -24 40 -26 11
-2 24 -7 28 -12 5 -4 1 -4 -7 0 -8 5 -4 -3 11 -16 14 -13 37 -30 51 -37 14 -8
37 -25 52 -38 14 -14 26 -22 26 -18 0 3 7 1 15 -6 8 -7 13 -16 10 -20 -3 -5 0
-12 6 -16 8 -4 9 -3 5 4 -12 19 13 14 36 -8 12 -11 28 -20 35 -20 7 0 13 -7
13 -16 0 -8 5 -12 11 -9 5 4 18 -3 29 -15 10 -12 21 -21 24 -21 13 1 41 -14
61 -31 12 -10 37 -27 56 -37 19 -11 33 -24 32 -29 -1 -6 7 -8 17 -5 11 3 20 1
20 -3 0 -5 14 -15 30 -22 17 -8 27 -18 24 -24 -4 -7 -2 -8 4 -4 15 9 73 -24
65 -37 -3 -6 -1 -7 6 -3 6 4 17 3 24 -2 7 -5 54 -31 105 -57 50 -25 92 -51 92
-56 0 -6 3 -8 8 -6 12 8 54 -12 47 -23 -3 -6 1 -7 9 -4 9 3 16 1 16 -6 0 -6 4
-8 10 -5 13 8 52 -19 43 -29 -4 -4 -1 -4 8 -1 14 5 113 -38 105 -46 -3 -2 7
-5 22 -6 14 0 31 -8 37 -17 7 -9 14 -13 17 -10 3 3 34 -8 69 -24 35 -16 93
-40 129 -53 36 -13 67 -27 68 -31 2 -5 7 -6 12 -3 5 3 14 0 22 -7 7 -7 19 -13
26 -14 38 -3 43 -5 38 -13 -3 -4 2 -8 12 -7 21 1 112 -26 112 -34 0 -3 12 -7
27 -8 15 -1 32 -7 37 -12 6 -6 18 -10 27 -10 9 0 34 -8 55 -17 40 -17 47 -19
77 -21 11 -1 15 -7 11 -14 -4 -6 -3 -8 3 -5 5 3 36 -1 69 -9 55 -14 78 -21
129 -39 11 -4 34 -9 50 -11 17 -3 32 -9 33 -15 3 -6 9 -6 18 2 8 6 14 7 14 2
0 -6 28 -16 63 -23 34 -7 67 -17 73 -21 6 -5 13 -7 15 -4 3 2 24 0 47 -6 23
-5 59 -12 80 -15 20 -3 39 -10 40 -15 2 -6 10 -5 18 2 8 6 14 7 14 2 0 -5 7
-10 15 -11 8 -1 29 -3 45 -5 17 -2 44 -4 61 -5 16 -1 28 -6 25 -10 -2 -4 11
-6 30 -4 24 3 34 0 34 -9 0 -11 2 -11 10 1 5 8 10 11 10 5 0 -5 30 -11 67 -13
37 -2 70 -6 73 -10 3 -4 45 -8 95 -10 49 -2 97 -8 107 -13 12 -7 18 -6 18 1 0
6 5 8 13 3 13 -8 51 -11 162 -13 38 0 75 -5 81 -11 8 -7 14 -6 19 1 3 6 10 8
15 5 13 -8 328 -10 336 -2 4 4 13 2 21 -4 10 -9 13 -8 13 2 0 11 2 11 10 -1 8
-12 10 -12 10 -1 0 10 3 11 14 2 8 -7 17 -8 20 -3 3 6 36 10 73 11 37 0 75 4
86 7 15 5 17 3 11 -7 -7 -12 -5 -12 9 -1 9 8 22 12 29 9 7 -2 21 0 31 5 11 5
17 5 17 -1 0 -7 9 -7 25 -1 18 7 25 6 25 -3 0 -9 2 -9 9 1 4 8 26 13 52 13 47
0 122 5 127 9 5 5 24 8 68 9 27 1 43 5 39 11 -4 7 3 7 19 0 19 -7 26 -6 26 3
0 8 4 7 10 -3 8 -12 10 -12 10 -1 0 9 9 12 30 9 17 -3 30 -1 30 3 0 4 8 7 18
7 9 0 33 3 52 6 19 4 49 9 65 12 17 2 41 6 55 10 14 3 34 7 45 8 11 1 25 4 30
7 6 4 22 6 37 5 14 -1 24 2 21 7 -3 5 3 7 13 6 11 -2 29 0 41 5 12 4 30 9 40
11 10 3 37 9 61 15 24 6 47 8 53 5 5 -4 9 -2 9 3 0 5 19 13 43 17 54 10 50 9
62 17 6 3 28 10 50 14 50 10 46 9 67 18 10 5 29 9 42 10 13 0 22 4 19 9 -2 4
5 8 16 8 24 2 30 3 53 13 10 5 29 9 42 10 13 0 22 4 19 9 -2 4 3 8 11 8 25 2
30 4 44 13 7 4 19 3 28 -5 12 -10 13 -9 9 3 -7 17 37 34 58 22 7 -4 9 -3 4 1
-8 10 110 58 123 50 5 -3 10 0 12 5 2 6 11 12 20 13 9 2 23 9 32 16 9 7 25 11
36 8 11 -3 18 -1 14 4 -4 8 17 14 39 10 4 0 7 3 7 7 0 8 71 37 79 33 2 -2 7 3
11 9 4 7 19 13 33 13 14 1 23 5 20 10 -4 7 1 9 30 11 6 1 18 7 25 14 8 7 18
10 23 7 5 -4 9 -2 9 3 0 8 51 35 70 37 3 1 29 13 58 28 28 15 52 25 52 22 0
-3 10 4 22 15 12 11 28 18 34 16 7 -3 15 2 18 10 3 9 10 12 16 9 5 -3 10 -1
10 5 0 7 7 9 16 6 10 -4 13 -2 8 6 -5 8 -2 9 10 5 9 -4 15 -3 12 2 -3 5 9 15
27 22 17 7 34 16 37 19 13 17 103 60 113 54 7 -4 9 -4 5 1 -9 10 91 77 104 69
4 -3 8 -1 8 4 0 10 155 112 171 112 5 0 9 5 9 10 0 6 5 10 11 10 6 0 17 7 26
16 9 8 22 13 30 10 8 -3 11 -2 8 3 -3 6 15 24 40 41 25 17 45 27 45 23 0 -4 4
-3 8 3 16 25 174 134 184 128 6 -4 8 -3 5 3 -7 11 62 70 76 65 5 -1 6 2 2 8
-3 5 -2 10 3 10 4 0 41 27 80 61 44 36 77 57 85 53 6 -4 9 -3 4 1 -10 12 43
66 57 58 6 -3 8 -3 4 1 -10 12 69 79 83 70 8 -4 9 -3 5 5 -8 13 120 138 136
133 5 -1 7 1 4 6 -3 5 4 16 15 25 11 10 17 23 13 29 -4 6 -3 8 4 4 6 -3 34 18
63 49 28 30 56 52 61 49 4 -3 8 -2 7 3 -4 15 13 43 22 37 5 -3 9 -1 9 3 0 5
27 38 61 73 33 36 77 84 96 107 19 24 39 40 44 37 5 -3 9 -2 8 3 -4 16 13 43
28 43 8 0 12 4 9 8 -2 4 8 21 22 38 15 17 42 50 61 72 18 23 37 39 42 36 5 -3
6 2 3 10 -3 9 10 31 34 55 22 23 36 41 32 41 -5 0 5 15 22 34 16 19 28 36 27
38 -2 2 6 15 19 28 41 46 72 88 72 99 0 6 4 11 8 11 5 0 18 18 31 40 12 22 27
38 32 35 5 -3 6 0 3 8 -3 8 0 18 5 22 6 3 8 11 5 17 -4 6 -2 8 3 5 6 -4 18 8
28 26 21 41 80 136 100 162 8 11 13 26 10 33 -2 7 -1 11 4 8 8 -5 50 60 49 78
0 5 5 12 10 15 5 3 24 33 42 66 18 33 37 66 43 73 5 6 6 12 1 12 -5 0 -4 4 1
8 19 13 95 174 88 185 -3 7 -3 9 2 5 11 -10 37 41 28 55 -3 5 -1 7 4 4 10 -6
50 79 45 96 -1 4 3 7 9 7 5 0 7 4 4 10 -3 5 -1 10 4 10 6 0 11 7 11 15 0 8 5
15 11 15 5 0 8 4 4 9 -3 5 11 44 30 86 19 43 33 81 30 85 -3 5 -1 10 3 12 13
5 93 229 86 240 -4 7 -2 8 4 4 11 -7 13 -3 16 37 1 6 3 14 6 17 6 6 44 120 45
135 0 6 4 16 8 22 5 7 5 17 2 23 -3 5 -2 10 3 10 5 0 17 28 26 63 9 34 18 69
20 77 30 111 46 183 41 190 -3 5 -1 11 4 14 7 5 15 37 36 151 2 11 4 20 5 20
1 0 3 11 6 25 2 14 11 58 19 98 8 40 14 76 14 80 -1 4 0 9 1 12 4 11 10 47 15
95 3 28 7 61 10 75 16 90 25 184 42 455 8 130 8 685 -1 800 -14 193 -22 280
-26 280 -2 0 -12 93 -13 133 -1 17 -4 32 -7 32 -3 0 -6 15 -7 33 -2 62 -7 97
-14 97 -4 0 -6 8 -4 18 1 9 0 21 -3 26 -3 5 -6 23 -8 40 -1 17 -6 45 -9 61 -4
17 -9 41 -10 55 -2 14 -4 25 -5 25 -2 0 -6 18 -14 65 -4 19 -11 50 -16 68 -4
17 -6 32 -3 32 3 0 0 6 -6 13 -6 8 -8 17 -4 20 3 4 0 14 -8 23 -8 10 -13 19
-11 21 6 7 -11 98 -20 111 -6 6 -7 12 -3 12 4 0 2 6 -4 13 -6 8 -8 16 -6 19 3
3 1 17 -5 32 -10 27 -21 72 -22 94 -1 6 -6 12 -11 12 -5 0 -7 7 -4 15 4 8 2
17 -3 20 -6 4 -10 16 -10 29 0 12 -3 26 -7 30 -4 3 -8 12 -9 19 -2 7 -10 33
-18 59 -8 25 -12 49 -9 52 4 3 1 6 -5 6 -7 0 -12 11 -12 25 0 14 -5 25 -11 25
-5 0 -7 5 -4 10 3 6 1 10 -5 10 -6 0 -8 5 -5 10 4 6 -3 31 -14 55 -12 25 -21
52 -21 60 0 8 -4 15 -8 15 -4 0 -8 9 -9 20 -1 11 -13 41 -26 67 -13 27 -22 54
-19 61 2 6 -1 12 -7 12 -6 0 -11 9 -11 20 0 11 -5 20 -10 20 -6 0 -9 4 -8 8 4
11 -24 82 -32 82 -4 0 -7 6 -7 13 -1 16 -26 81 -34 87 -3 3 -12 22 -20 43 -7
20 -17 37 -22 37 -4 0 -6 4 -3 9 3 5 -1 14 -9 21 -7 6 -11 18 -8 26 3 8 0 14
-7 14 -6 0 -9 4 -6 9 3 5 -1 12 -9 15 -8 3 -14 9 -13 13 4 14 -13 53 -23 53
-5 0 -9 7 -9 15 0 9 -7 27 -16 40 -9 14 -13 25 -8 25 4 0 -5 14 -22 32 -16 17
-23 28 -17 24 9 -5 11 -2 7 8 -3 9 -10 16 -15 16 -5 0 -9 5 -9 11 0 6 -7 17
-15 26 -8 8 -13 19 -10 24 4 5 1 9 -4 9 -6 0 -11 7 -11 15 0 9 -7 18 -15 21
-8 4 -13 10 -10 14 3 5 -2 15 -11 24 -8 9 -13 20 -10 25 3 5 -1 12 -10 15 -9
4 -14 9 -11 12 3 4 1 12 -6 20 -29 32 -36 42 -31 46 2 3 -7 17 -20 31 -13 14
-21 29 -18 32 4 4 -1 11 -11 16 -9 6 -15 14 -12 19 3 4 -2 11 -11 14 -8 3 -12
10 -9 16 3 6 -1 13 -9 16 -15 6 -32 41 -28 57 1 4 -5 7 -13 7 -8 0 -15 5 -15
11 0 7 -8 18 -17 26 -12 10 -13 12 -3 8 8 -4 6 1 -4 9 -11 9 -16 16 -12 16 4
0 -6 12 -21 26 -15 15 -19 20 -8 13 16 -10 14 -7 -5 16 -14 16 -32 35 -40 42
-8 7 -12 13 -7 13 4 0 -1 9 -10 19 -29 32 -43 50 -43 55 0 6 -24 37 -47 61 -7
8 -13 18 -13 23 0 5 -11 18 -25 28 -14 10 -25 25 -25 32 0 8 -11 23 -25 34
-14 11 -25 26 -25 34 0 8 -4 12 -10 9 -6 -3 -10 -1 -10 5 0 7 -14 25 -30 40
-16 15 -30 33 -30 39 0 6 -7 11 -16 11 -8 0 -12 5 -9 10 3 6 2 10 -3 10 -5 0
-20 16 -33 35 -13 19 -30 35 -38 35 -8 0 -12 3 -8 6 9 9 -170 201 -184 197 -4
-2 -10 6 -14 16 -3 11 -12 22 -20 25 -8 3 -15 13 -15 23 0 14 -2 15 -9 5 -6
-10 -10 -9 -14 7 -3 12 -13 21 -22 21 -9 0 -13 5 -10 10 3 6 2 10 -4 10 -14 0
-60 47 -53 54 3 3 0 6 -7 6 -16 0 -73 59 -66 70 3 4 -5 6 -17 2 -17 -4 -20 -2
-15 12 4 9 3 15 -1 12 -5 -3 -25 10 -45 29 -21 19 -40 35 -43 35 -11 0 -33 28
-27 34 4 3 -1 6 -10 6 -9 0 -17 5 -17 11 0 5 -4 7 -10 4 -5 -3 -10 1 -10 9 0
9 -6 16 -13 16 -7 0 -18 9 -25 20 -7 11 -19 20 -27 20 -8 0 -15 4 -15 10 0 5
-14 17 -31 25 -19 10 -29 22 -25 30 3 9 0 12 -8 9 -8 -3 -17 0 -21 5 -3 6 -11
8 -17 5 -6 -4 -8 -2 -5 3 6 9 -14 24 -35 27 -3 1 -10 5 -15 10 -4 5 -3 7 3 3
6 -3 11 0 11 7 0 8 -10 12 -23 10 -16 -1 -25 4 -29 17 -4 11 -11 17 -16 14 -5
-4 -9 -1 -9 6 0 7 -3 10 -6 6 -7 -7 -28 12 -37 33 -4 11 -6 11 -6 2 -1 -11 -4
-11 -16 0 -34 31 -43 36 -49 31 -3 -4 -6 2 -6 11 0 12 -5 16 -14 13 -9 -4 -17
2 -21 13 -4 11 -12 17 -21 13 -7 -3 -14 0 -14 6 0 6 -7 11 -15 11 -8 0 -15 5
-15 10 0 6 -4 10 -10 10 -5 0 -19 9 -30 20 -11 11 -27 20 -36 20 -9 0 -12 5
-8 12 5 7 2 9 -9 5 -9 -3 -18 0 -21 9 -3 9 -10 13 -15 10 -5 -3 -11 1 -15 9
-3 8 -12 15 -21 15 -8 0 -15 4 -15 9 0 5 -8 12 -19 16 -10 3 -29 14 -41 25
-12 11 -27 17 -31 14 -5 -3 -9 0 -9 5 0 6 -5 11 -11 11 -7 0 -18 8 -26 18 -10
11 -12 12 -8 2 4 -10 2 -9 -8 2 -8 10 -17 15 -20 11 -4 -3 -7 2 -7 12 0 14 -3
15 -15 5 -11 -9 -15 -9 -15 -1 0 7 -5 9 -12 5 -10 -6 -10 -5 0 8 10 13 9 15
-12 13 -15 -2 -27 3 -30 12 -4 8 -13 13 -21 9 -8 -3 -17 0 -21 6 -5 7 -2 8 6
3 9 -6 11 -4 6 4 -5 7 -14 10 -22 7 -8 -3 -17 1 -21 10 -3 8 -12 13 -20 10 -8
-3 -11 -1 -8 4 3 6 1 10 -4 10 -22 0 -26 2 -45 18 -12 11 -16 12 -11 3 5 -10
4 -12 -3 -7 -7 4 -12 14 -12 23 0 13 -3 13 -15 3 -10 -9 -15 -9 -15 -1 0 6 -5
11 -11 11 -6 0 -17 7 -26 15 -8 8 -19 13 -24 10 -5 -4 -9 -1 -9 5 0 6 -4 8
-10 5 -5 -3 -10 -1 -10 5 0 6 -4 8 -10 5 -5 -3 -10 -1 -10 5 0 6 -4 8 -10 5
-5 -3 -10 -1 -10 5 0 7 -6 10 -14 7 -8 -3 -16 -3 -18 1 -6 13 -90 52 -99 46
-5 -3 -9 1 -9 9 0 7 -6 14 -12 14 -19 1 -42 7 -48 14 -8 8 -77 39 -88 39 -6 0
-13 6 -15 13 -4 8 -6 8 -6 -2 -1 -12 -4 -11 -14 3 -7 9 -22 18 -35 19 -12 0
-22 5 -22 10 0 4 -8 7 -17 5 -11 -2 -17 2 -15 11 3 12 0 12 -12 1 -11 -8 -16
-9 -16 -1 0 6 -9 11 -20 11 -11 0 -20 4 -20 8 0 5 -7 9 -15 10 -8 1 -22 3 -30
4 -8 1 -15 6 -15 11 0 5 -7 7 -15 3 -8 -3 -15 -1 -15 5 0 6 -7 8 -16 5 -10 -4
-13 -2 -8 6 5 8 2 9 -11 5 -9 -4 -24 -2 -32 5 -8 7 -25 14 -36 15 -12 2 -23 8
-25 13 -2 6 -17 10 -33 10 -16 0 -29 4 -29 8 0 5 -7 9 -15 9 -26 0 -99 26
-119 42 -15 12 -17 12 -11 2 6 -11 4 -13 -11 -7 -10 5 -25 9 -31 9 -7 0 -13 5
-13 10 0 6 -3 7 -7 4 -3 -4 -12 1 -20 11 -12 16 -13 16 -7 0 6 -16 4 -17 -22
-3 -15 7 -31 12 -36 9 -4 -3 -11 2 -14 11 -5 11 -9 13 -14 6 -4 -8 -18 -7 -48
3 -23 8 -42 13 -42 9 0 -3 -7 0 -15 7 -9 7 -18 10 -22 7 -3 -3 -19 1 -35 9
-23 12 -28 12 -22 2 6 -11 5 -11 -8 0 -8 7 -22 10 -31 6 -8 -3 -18 0 -23 7 -5
8 -3 10 6 4 8 -5 11 -4 6 3 -4 6 -13 9 -21 6 -7 -3 -23 0 -35 6 -17 9 -21 9
-15 0 5 -9 3 -9 -11 -2 -11 5 -25 7 -33 4 -8 -2 -11 -1 -8 4 3 5 -9 10 -26 11
-54 3 -77 7 -77 14 0 4 -16 8 -35 9 -61 2 -75 4 -75 10 0 3 -16 6 -36 7 -19 1
-41 6 -48 12 -9 7 -16 7 -24 -1 -9 -9 -12 -9 -12 1 0 7 -5 9 -10 6 -6 -4 -17
-2 -25 5 -9 8 -15 8 -20 0 -3 -6 -10 -8 -14 -5 -5 2 -26 7 -47 10 -22 3 -48 7
-60 9 -11 2 -27 7 -34 11 -8 5 -11 4 -7 -2 7 -11 1 -11 -108 2 -22 3 -58 6
-80 8 -22 1 -43 6 -47 12 -5 6 -8 5 -8 -3 0 -10 -5 -10 -21 -1 -17 9 -20 8
-14 -2 6 -9 3 -10 -11 -4 -10 4 -27 7 -37 7 -11 -1 -15 4 -10 11 5 9 3 9 -8 1
-17 -13 -89 -15 -89 -2 0 5 -6 6 -12 2 -18 -11 -48 -12 -54 -2 -3 4 -11 5 -17
1 -20 -12 -37 -12 -37 0 0 8 -3 7 -9 -1 -11 -18 -12 -18 -40 -3 -17 10 -22 10
-16 1 5 -9 1 -10 -15 -5 -29 9 -79 13 -85 6z"/>
</g>
</svg>
